<svg width="129" height="128" viewBox="0 0 129 128" fill="none" xmlns="http://www.w3.org/2000/svg">
<g id="AgyinDawuru-sans">
<path id="AgyinDawuru-icon" fill-rule="evenodd" clip-rule="evenodd" d="M63.9991 102.418C68.8936 110.556 77.8132 116.001 88.0045 116.001C103.466 116.001 116.001 103.467 116.001 88.0041C116.001 77.8154 110.556 68.8984 102.421 64.0013C110.556 59.1055 116.001 50.1872 116.001 39.9998C116.001 24.5367 103.466 12.0034 88.0045 12.0034C77.8159 12.0034 68.8962 17.4448 63.9991 25.586C59.1047 17.4475 50.185 12.0034 39.9976 12.0034C24.5345 12.0034 12.0012 24.5367 12.0012 39.9998C12.0012 50.1872 17.4453 59.1055 25.5812 64.0013C17.4453 68.8984 12.0012 77.8154 12.0012 88.0041C12.0012 103.467 24.5345 116.001 39.9976 116.001C50.1876 116.001 59.1047 110.556 63.9991 102.418ZM80.8233 75.1775L88.0019 68.0029C99.0479 68.0055 108.002 76.9607 108.002 88.0041C108.002 99.0475 99.0479 108.003 88.0045 108.003C76.9611 108.003 68.0059 99.0475 67.9993 88.0041L75.1674 80.8321L69.5103 75.1749L64.0017 80.6861L58.4905 75.1723L52.8334 80.8281L60.0028 88.0041C59.9962 99.0475 51.041 108.003 39.9976 108.003C28.9542 108.003 19.999 99.0475 19.999 88.0041C19.999 76.9607 28.9542 68.0055 40.0003 68.0015L47.1789 75.1723L52.8334 69.5204L47.313 63.9974L52.8216 58.4888L47.167 52.8316L39.9976 59.9997C28.9542 59.9984 19.999 51.0432 19.999 39.9998C19.999 28.9564 28.9542 20.0012 39.9976 20.0012C51.041 20.0012 59.9962 28.9564 60.0028 39.9946L52.8216 47.1758L58.4774 52.833L64.0017 47.3086L69.5221 52.8316L75.1793 47.1732L67.9993 39.9946C68.0059 28.9564 76.9611 20.0012 88.0045 20.0012C99.0479 20.0012 108.002 28.9564 108.002 39.9998C108.002 51.0432 99.0479 59.9984 88.0045 59.9984L80.8351 52.829L75.178 58.4835L80.6905 63.9974L75.1674 69.5204L80.8233 75.1775Z" fill="black"/>
</g>
</svg>
